HIERARCHY
ROOT SimulationBone
{
	OFFSET 0.000000 0.000000 0.000000
	CHANNELS 6 Xposition Yposition Zposition Zrotation Yrotation Xrotation 
	JOINT Hips
	{
		OFFSET 0.000000 0.000000 0.000000
		CHANNELS 6 Xposition Yposition Zposition Zrotation Yrotation Xrotation 
		JOINT LeftUpLeg
		{
			OFFSET 0.103457 1.857818 10.548502
			CHANNELS 3 Zrotation Yrotation Xrotation
			JOINT LeftLeg
			{
				OFFSET 43.500000 -0.000011 -0.000004
				CHANNELS 3 Zrotation Yrotation Xrotation
				JOINT LeftFoot
				{
					OFFSET 42.372192 -0.000004 -0.000008
					CHANNELS 3 Zrotation Yrotation Xrotation
					JOINT LeftToe
					{
						OFFSET 17.300014 0.000006 0.000001
						CHANNELS 3 Zrotation Yrotation Xrotation
						End Site
						{
							OFFSET 0.000000 0.000000 0.000000
						}
					}
				}
			}
		}
		JOINT RightUpLeg
		{
			OFFSET 0.103457 1.857817 -10.548505
			CHANNELS 3 Zrotation Yrotation Xrotation
			JOINT RightLeg
			{
				OFFSET 43.500046 -0.000004 0.000011
				CHANNELS 3 Zrotation Yrotation Xrotation
				JOINT RightFoot
				{
					OFFSET 42.372257 0.000000 0.000015
					CHANNELS 3 Zrotation Yrotation Xrotation
					JOINT RightToe
					{
						OFFSET 17.300003 -0.000000 0.000002
						CHANNELS 3 Zrotation Yrotation Xrotation
						End Site
						{
							OFFSET 0.000000 0.000000 0.000000
						}
					}
				}
			}
		}
		JOINT Spine
		{
			OFFSET 6.901961 -2.603721 -0.000001
			CHANNELS 3 Zrotation Yrotation Xrotation
			JOINT Spine1
			{
				OFFSET 12.588108 0.000002 -0.000001
				CHANNELS 3 Zrotation Yrotation Xrotation
				JOINT Spine2
				{
					OFFSET 12.343199 -0.000020 0.000006
					CHANNELS 3 Zrotation Yrotation Xrotation
					JOINT Neck
					{
						OFFSET 25.832905 0.000017 0.000000
						CHANNELS 3 Zrotation Yrotation Xrotation
						JOINT Head
						{
							OFFSET 11.766604 -0.000006 0.000004
							CHANNELS 3 Zrotation Yrotation Xrotation
							End Site
							{
								OFFSET 0.000000 0.000000 0.000000
							}
						}
					}
					JOINT LeftShoulder
					{
						OFFSET 19.745903 -1.480350 6.000100
						CHANNELS 3 Zrotation Yrotation Xrotation
						JOINT LeftArm
						{
							OFFSET 11.284130 -0.000016 -0.000016
							CHANNELS 3 Zrotation Yrotation Xrotation
							JOINT LeftForeArm
							{
								OFFSET 33.000046 0.000004 0.000031
								CHANNELS 3 Zrotation Yrotation Xrotation
								JOINT LeftHand
								{
									OFFSET 25.199999 0.000027 0.000001
									CHANNELS 3 Zrotation Yrotation Xrotation
									End Site
									{
										OFFSET 0.000000 0.000000 0.000000
									}
								}
							}
						}
					}
					JOINT RightShoulder
					{
						OFFSET 19.746094 -1.480375 -6.000080
						CHANNELS 3 Zrotation Yrotation Xrotation
						JOINT RightArm
						{
							OFFSET 11.284131 -0.000016 -0.000017
							CHANNELS 3 Zrotation Yrotation Xrotation
							JOINT RightForeArm
							{
								OFFSET 33.000095 0.000009 0.000020
								CHANNELS 3 Zrotation Yrotation Xrotation
								JOINT RightHand
								{
									OFFSET 25.199789 0.000132 0.000423
									CHANNELS 3 Zrotation Yrotation Xrotation
									End Site
									{
										OFFSET 0.000000 0.000000 0.000000
									}
								}
							}
						}
					}
				}
			}
		}
	}
}
MOTION
Frames: 11
Frame Time: 0.016667
-3.583143 0.000000 350.246709 0.000000 -66.229637 0.000000 -10.835807 79.324760 1.277918 85.073599 2.730645 175.771796 160.019270 3.387807 -170.430295 -69.616429 0.147856 -2.540970 93.294413 1.680101 -0.285037 21.454550 0.003095 -0.000005 129.294141 4.631604 159.289984 -28.267261 0.458175 7.477029 76.452574 -4.176459 4.200286 21.454557 -0.003116 -0.000023 14.874776 -0.000375 1.833332 19.731805 -0.313623 3.639561 19.414403 -0.291516 3.641410 10.529860 -18.424261 -11.287849 -29.066456 18.872835 -22.824348 164.510993 -76.125090 14.313107 6.207970 65.408320 -6.865039 -131.839603 1.585943 3.952299 -7.918510 -9.098083 10.186355 169.124690 73.511259 -9.735781 -24.146186 -53.818798 5.499094 -96.259774 2.610959 -2.809559 -16.584345 7.073256 -41.185251 
-3.399847 0.000000 354.511356 0.000000 -66.756144 0.000000 -10.021920 79.223948 1.373058 85.373550 3.540713 176.735216 163.305967 3.386550 -168.239125 -70.473006 0.388888 -3.874918 90.718993 2.552836 -0.587120 21.454550 0.003100 -0.000007 131.563956 5.495896 161.258532 -20.612404 1.000375 6.597407 76.324582 -3.540295 4.441151 21.454559 -0.003108 -0.000020 14.564733 0.271629 1.771466 19.120576 0.246542 3.563351 18.803147 0.268164 3.561821 11.307162 -17.384302 -10.931300 -28.675556 17.962324 -21.713954 168.167945 -75.902983 10.591657 11.329594 64.536185 1.567005 -136.532638 1.117194 4.151855 -9.385338 -8.290141 14.245193 171.496041 73.033034 -7.321564 -18.558009 -54.517776 1.267728 -97.541579 2.308120 -2.845990 -16.069490 6.500248 -40.797988 
-3.141156 0.000000 358.741888 0.000000 -67.233693 0.000000 -9.129455 79.070152 1.568092 85.997307 4.045076 177.901120 165.878794 3.589300 -166.047049 -72.721993 0.664168 -4.504759 86.414425 2.619975 -2.516174 21.454550 0.003099 -0.000004 133.094978 6.241184 164.704575 -18.627463 1.504914 6.660193 76.383186 -3.452924 4.885040 21.454560 -0.003106 -0.000018 14.270053 0.457967 1.676006 18.537147 0.641201 3.403676 18.219641 0.661852 3.399765 12.415839 -15.871855 -10.703230 -28.360893 16.884890 -20.620652 170.811200 -75.936713 7.892847 16.250262 63.557989 10.588482 -140.284298 0.587444 4.305877 -10.690493 -7.091254 18.865520 174.562505 72.533811 -4.190117 -13.713702 -54.781301 -2.268700 -98.612870 2.054791 -2.876067 -15.554023 6.069492 -40.344181 
-2.809432 0.000000 362.938604 0.000000 -67.662776 0.000000 -8.222607 78.831187 1.820848 86.895100 4.432460 179.108415 167.853716 3.930209 -164.074102 -76.105005 0.999296 -4.614539 81.606815 2.100106 -4.694439 21.454549 0.003096 0.000000 134.073582 6.794354 169.025955 -20.776835 1.781843 6.902334 75.197653 -3.281698 5.910125 21.454559 -0.003106 -0.000017 14.005892 0.597121 1.587979 18.012937 0.939396 3.249580 17.695351 0.959118 3.243870 13.651050 -14.147649 -10.533500 -28.159860 15.746365 -19.593956 172.649908 -76.143916 6.009776 20.955102 62.521971 19.478499 -142.940894 0.092609 4.420118 -11.512394 -5.518108 23.197417 177.781669 72.081405 -0.894692 -9.990908 -54.703696 -4.724528 -99.451500 1.853198 -2.899415 -15.070337 5.765551 -39.895561 
-2.407039 0.000000 367.101804 0.000000 -68.043964 0.000000 -7.367248 78.474869 2.091275 88.025899 4.898127 -179.800942 169.334583 4.347196 -162.552765 -80.368786 1.437749 -4.392072 77.519805 1.476952 -5.782570 21.454550 0.003093 0.000004 134.655457 7.112102 173.622644 -25.541475 1.693384 6.626206 71.359104 -2.302412 7.858009 21.454558 -0.003106 -0.000017 13.787527 0.727993 1.548057 17.580152 1.211955 3.188898 17.262511 1.231313 3.181546 14.814072 -12.473077 -10.372769 -28.103046 14.653988 -18.679061 173.769246 -76.428903 4.859481 25.545205 61.527776 27.614206 -144.344190 -0.268231 4.488315 -11.579040 -3.655931 26.408910 -179.273382 71.774569 2.126882 -7.699089 -54.385393 -5.784001 -100.035202 1.705587 -2.915270 -14.650196 5.574733 -39.523865 
-1.936338 0.000000 371.231790 0.000000 -68.377889 0.000000 -6.610521 77.989931 2.349614 89.349325 5.593655 -178.941745 170.369813 4.766833 -161.670831 -85.256766 1.994035 -4.011188 75.157651 1.270676 -5.048797 21.454552 0.003093 0.000005 134.983303 7.199485 177.963002 -31.642278 1.159531 5.430988 64.911832 -0.025384 10.397550 21.454556 -0.003104 -0.000017 13.627871 0.883306 1.585137 17.266329 1.519795 3.284645 16.948670 1.539726 3.275440 15.741050 -11.087165 -10.195947 -28.206654 13.711791 -17.914016 174.274318 -76.678770 4.337516 30.088042 60.682183 34.467519 -144.328802 -0.420660 4.500891 -10.773070 -1.625629 27.935532 -176.951850 71.697128 4.513531 -7.028468 -53.873460 -5.229392 -100.339180 1.615118 -2.922534 -14.319569 5.494998 -39.278360 
-1.399695 0.000000 375.328861 0.000000 -68.665235 0.000000 -5.920102 77.448769 2.601155 90.796149 6.466584 -178.282208 170.825189 5.074405 -161.411276 -90.479023 2.579380 -3.566474 74.869760 1.261368 -3.807420 21.454555 0.003093 0.000004 135.231666 7.237393 -178.233308 -38.782267 0.792898 3.791122 61.453328 2.007346 11.368538 21.454555 -0.003104 -0.000017 13.530103 1.070004 1.681989 17.078572 1.879611 3.504021 16.760929 1.900857 3.492647 16.384857 -10.138530 -9.997641 -28.448213 13.008525 -17.318863 174.610398 -76.739226 3.993121 34.094801 60.043631 39.499130 -142.713496 -0.398150 4.448792 -9.340851 0.373912 28.166488 -175.654092 71.781078 5.849444 -7.907003 -53.068003 -3.013895 -100.328900 1.588590 -2.920225 -14.081470 5.565745 -39.117466 
-0.799470 0.000000 379.393319 0.000000 -68.906723 0.000000 -5.251175 76.946849 2.859921 92.281684 7.388516 -177.771024 170.557165 5.191338 -161.723773 -95.704173 3.093151 -3.150541 76.477350 1.098584 -3.373667 21.454557 0.003092 0.000003 135.661374 7.382581 -175.126787 -46.692611 1.173889 2.146786 65.566481 2.119254 9.517234 21.454556 -0.003110 -0.000018 13.489855 1.277386 1.812456 17.008082 2.274033 3.793849 16.690477 2.297018 3.780088 16.747124 -9.705953 -9.776830 -28.787624 12.599821 -16.898303 175.221822 -76.491562 3.375589 37.004187 59.729346 42.345433 -139.359710 -0.276601 4.333893 -7.584879 2.128227 27.772835 -175.739083 71.921224 5.763457 -10.077298 -51.809073 0.706173 -99.987778 1.632398 -2.907884 -13.928561 5.816596 -39.000774 
-0.138029 0.000000 383.425463 0.000000 -69.103100 0.000000 -4.589443 76.588242 3.144217 93.700734 8.130980 -177.411019 169.561058 5.261908 -162.624045 -100.446298 3.501430 -3.000371 78.307025 1.077338 -3.151283 21.454555 0.003090 0.000001 136.755139 7.576203 -172.645080 -53.900874 1.733749 0.652841 73.035649 1.634762 6.706748 21.454558 -0.003114 -0.000019 13.482432 1.450902 1.960384 17.003262 2.597499 4.113917 16.685717 2.622406 4.098196 16.915851 -9.677844 -9.540615 -29.151748 12.428587 -16.604779 176.144718 -76.009728 2.445015 38.503787 59.840761 43.344238 -134.308702 -0.205919 4.162386 -5.779877 3.355179 27.698062 -177.043394 72.009861 4.423281 -13.006621 -50.041510 5.325013 -99.380857 1.748053 -2.888997 -13.834748 6.199796 -38.983041 
0.582267 0.000000 387.425594 0.000000 -69.255135 0.000000 -3.950668 76.465820 3.461695 94.942876 8.529502 -177.220995 167.842050 5.415572 -164.089839 -104.252846 3.763458 -3.284279 78.792946 1.488096 -2.364576 21.454547 0.003087 -0.000002 138.878494 7.676771 -170.662815 -58.967931 1.894515 -0.468208 78.700178 1.654649 5.098626 21.454557 -0.003111 -0.000018 13.478363 1.541819 2.118437 17.002491 2.755098 4.441914 16.685042 2.781978 4.425238 16.979155 -9.892201 -9.290771 -29.466364 12.405613 -16.374938 177.258841 -75.425143 1.319691 38.381063 60.384131 42.925666 -127.738680 -0.326027 3.929802 -4.120229 3.757460 28.727493 -179.164437 71.966673 2.242070 -16.161611 -47.828239 10.186761 -98.619841 1.926571 -2.867748 -13.782249 6.641848 -39.146264 
1.359054 0.000000 391.394012 0.000000 -69.363607 0.000000 -3.440874 76.619049 3.773440 95.917311 8.768464 -177.184411 165.318418 5.551806 -165.870707 -106.971000 3.887981 -3.766186 78.276330 2.046498 -1.524031 21.454541 0.003087 -0.000004 141.741806 7.523102 -169.079134 -62.039113 1.811984 -1.256191 82.695387 1.883027 4.407778 21.454558 -0.003106 -0.000016 13.450625 1.568217 2.305115 16.952229 2.781235 4.816733 16.634946 2.810370 4.799900 16.939484 -10.174000 -9.015191 -29.677618 12.426584 -16.132955 178.253922 -74.910212 0.312677 36.905471 61.208451 41.509250 -120.239414 -0.681167 3.664438 -2.625411 3.226354 30.816843 178.563780 71.882860 -0.094790 -19.184098 -45.480702 14.780507 -97.921737 2.121806 -2.849817 -13.801000 7.043220 -39.585197 
